<svg width="38" height="38" viewBox="0 0 38 38" fill="none" xmlns="http://www.w3.org/2000/svg">
<path d="M15.8337 13.667C14.8337 12.0003 13.8337 10.8337 12.667 10.0003C13.5003 9.00033 14.0003 7.66699 14.0003 6.33366C14.0003 3.16699 11.5003 0.666992 8.33366 0.666992C5.16699 0.666992 2.83366 3.16699 2.83366 6.33366C2.83366 7.83366 3.33366 9.00033 4.16699 10.0003C2.00033 11.3337 0.666992 13.8337 0.666992 16.5003V21.167C0.666992 22.167 1.33366 22.8337 2.33366 22.8337C3.33366 22.8337 4.00033 22.167 4.00033 21.167V16.5003C4.00033 14.667 5.00033 13.0003 6.66699 12.3337C7.16699 12.167 7.83366 12.0003 8.50033 12.0003C10.5003 12.0003 11.5003 12.5003 13.167 15.3337L17.667 22.167C18.0003 22.667 18.5003 22.8337 19.0003 22.8337C19.3337 22.8337 19.667 22.667 20.0003 22.5003C20.8337 22.0003 21.0003 21.0003 20.5003 20.167L15.8337 13.667ZM8.33366 4.00033C9.66699 4.00033 10.667 5.00033 10.667 6.33366C10.667 7.66699 9.66699 8.50033 8.33366 8.50033C7.00033 8.50033 6.16699 7.50033 6.16699 6.33366C6.16699 5.16699 7.16699 4.00033 8.33366 4.00033Z" fill="white"/>
<path d="M11.5007 17.334C10.5007 17.334 9.83398 18.0007 9.83398 19.0007V32.6673C9.83398 33.5007 9.16732 34.0007 8.50065 34.0007C7.83398 34.0007 7.16732 33.334 7.16732 32.6673V25.1673C7.16732 24.1673 6.50065 23.5007 5.50065 23.5007C4.50065 23.5007 3.83398 24.1673 3.83398 25.1673V32.6673C3.83398 35.334 6.00065 37.334 8.50065 37.334C11.1673 37.334 13.1673 35.1673 13.1673 32.6673V19.0007C13.1673 18.0007 12.334 17.334 11.5007 17.334Z" fill="white"/>
<path d="M33.834 10.0003C34.6673 9.00033 35.334 7.66699 35.334 6.33366C35.334 3.16699 32.834 0.666992 29.6673 0.666992C26.5007 0.666992 24.0007 3.16699 24.0007 6.33366C24.0007 7.66699 24.5007 9.00033 25.334 10.0003C24.0007 10.8337 23.0007 12.0003 22.1673 13.667L20.834 15.667C20.334 16.5003 20.5007 17.5003 21.334 18.0003C22.1673 18.5003 23.1673 18.3337 23.6673 17.5003L25.0007 15.5003C26.6673 12.8337 27.6673 12.3337 29.6673 12.3337C30.334 12.3337 30.834 12.5003 31.5007 12.667C33.0007 13.0003 34.0007 14.667 34.0007 16.5003V21.167C34.0007 22.167 34.6673 22.8337 35.6673 22.8337C36.6673 22.8337 37.334 22.167 37.334 21.167V16.5003C37.334 13.8337 36.0007 11.3337 33.834 10.0003ZM29.6673 4.00033C31.0007 4.00033 32.0007 5.00033 32.0007 6.33366C32.0007 7.66699 31.0007 8.66699 29.6673 8.66699C28.334 8.66699 27.334 7.66699 27.334 6.33366C27.334 5.00033 28.334 4.00033 29.6673 4.00033Z" fill="white"/>
<path d="M32.6667 23.334C31.6667 23.334 31 24.0007 31 25.0007V32.5007C31 33.334 30.3333 33.834 29.6667 33.834C29 33.834 28.3333 33.1673 28.3333 32.5007V19.0007C28.3333 18.0007 27.6667 17.334 26.6667 17.334C25.6667 17.334 25 18.0007 25 19.0007V32.6673C25 35.334 27.1667 37.334 29.6667 37.334C32.1667 37.334 34.3333 35.1673 34.3333 32.6673V25.1673C34.3333 24.1673 33.5 23.334 32.6667 23.334Z" fill="white"/>
</svg>
