<svg width="40" height="40" viewBox="0 0 40 40" fill="none" xmlns="http://www.w3.org/2000/svg">
<path fill-rule="evenodd" clip-rule="evenodd" d="M7.83332 9.99996C6.21272 9.99996 4.99999 11.2943 4.99999 12.6666V27.3333C4.99999 28.7056 6.21272 30 7.83332 30H20C20.9205 30 21.6667 30.7462 21.6667 31.6666C21.6667 32.5871 20.9205 33.3333 20 33.3333H7.83332C4.45392 33.3333 1.66666 30.6276 1.66666 27.3333V12.6666C1.66666 9.37227 4.45392 6.66663 7.83332 6.66663H12.3333C17.5384 6.66663 21.6667 10.6982 21.6667 15.6666C21.6667 16.5871 20.9205 17.3333 20 17.3333C19.0795 17.3333 18.3333 16.5871 18.3333 15.6666C18.3333 12.6351 15.7949 9.99996 12.3333 9.99996H7.83332Z" fill="white"/>
<path fill-rule="evenodd" clip-rule="evenodd" d="M27.5 9.99996C24.2294 9.99996 21.6667 12.6114 21.6667 15.6666V27.3333C21.6667 28.2538 20.9205 29 20 29C19.0795 29 18.3333 28.2538 18.3333 27.3333V15.6666C18.3333 10.7219 22.4373 6.66663 27.5 6.66663H32C35.5056 6.66663 38.3333 9.3333 38.3333 12.6666V27.3333C38.3333 30.6276 35.5461 33.3333 32.1667 33.3333H20C19.0795 33.3333 18.3333 32.5871 18.3333 31.6666C18.3333 30.7462 19.0795 30 20 30H32.1667C33.7873 30 35 28.7056 35 27.3333V12.6666C35 11.3333 33.8278 9.99996 32 9.99996H27.5Z" fill="white"/>
</svg>
