<svg width="70" height="61" viewBox="0 0 70 61" fill="none" xmlns="http://www.w3.org/2000/svg">
<path d="M3.52941 60.4609C1.17647 50.1195 0 41.1439 0 33.5341C0 22.6073 2.54902 14.4122 7.64706 8.94874C12.7451 3.2902 20.1961 0.460938 30 0.460938V12.1683C24.902 12.1683 21.1765 13.5341 18.8235 16.2658C16.6667 18.9975 15.5882 23.0951 15.5882 28.5585V35.2902H30.2941V60.4609H3.52941ZM43.2353 60.4609C40.8824 50.1195 39.7059 41.1439 39.7059 33.5341C39.7059 22.6073 42.2549 14.4122 47.3529 8.94874C52.451 3.2902 59.902 0.460938 69.7059 0.460938V12.1683C64.6078 12.1683 60.8824 13.5341 58.5294 16.2658C56.3726 18.9975 55.2941 23.0951 55.2941 28.5585V35.2902H70V60.4609H43.2353Z" fill="#DB6747"/>
</svg>
